<svg width="12" height="12" viewBox="0 0 12 12" fill="none" xmlns="http://www.w3.org/2000/svg">
<path fill-rule="evenodd" clip-rule="evenodd" d="M4.5 1C4.71522 1 4.90628 1.13772 4.97434 1.34189L7.5 8.91886L8.52566 5.84189C8.59371 5.63771 8.78478 5.5 9 5.5H11C11.2761 5.5 11.5 5.72386 11.5 6C11.5 6.27614 11.2761 6.5 11 6.5H9.36038L7.97434 10.6581C7.90628 10.8623 7.71522 11 7.5 11C7.28478 11 7.09372 10.8623 7.02566 10.6581L4.5 3.08114L3.47434 6.15811C3.40628 6.36229 3.21522 6.5 3 6.5H1C0.723858 6.5 0.5 6.27614 0.5 6C0.5 5.72386 0.723858 5.5 1 5.5H2.63962L4.02566 1.34189C4.09372 1.13772 4.28478 1 4.5 1Z" fill="#101828"/>
</svg>
