<svg width="16" height="16" viewBox="0 0 16 16" fill="none" xmlns="http://www.w3.org/2000/svg">
<path fill-rule="evenodd" clip-rule="evenodd" d="M6.00002 1.3335C6.28697 1.3335 6.54173 1.51712 6.63248 1.78934L10 11.892L11.3676 7.78934C11.4583 7.51712 11.7131 7.3335 12 7.3335H14.6667C15.0349 7.3335 15.3334 7.63197 15.3334 8.00016C15.3334 8.36835 15.0349 8.66683 14.6667 8.66683H12.4805L10.6325 14.211C10.5417 14.4832 10.287 14.6668 10 14.6668C9.71307 14.6668 9.45831 14.4832 9.36756 14.211L6.00002 4.10835L4.63248 8.21098C4.54173 8.48321 4.28697 8.66683 4.00002 8.66683H1.33335C0.965164 8.66683 0.666687 8.36835 0.666687 8.00016C0.666687 7.63197 0.965164 7.3335 1.33335 7.3335H3.51951L5.36756 1.78934C5.45831 1.51712 5.71307 1.3335 6.00002 1.3335Z" fill="#101828"/>
</svg>
