<svg width="20" height="20" viewBox="0 0 20 20" fill="none" xmlns="http://www.w3.org/2000/svg">
<path fill-rule="evenodd" clip-rule="evenodd" d="M7.49998 1.6665C7.85867 1.6665 8.17712 1.89603 8.29055 2.23631L12.5 14.8646L14.2094 9.73631C14.3228 9.39603 14.6413 9.1665 15 9.1665H18.3333C18.7935 9.1665 19.1666 9.5396 19.1666 9.99984C19.1666 10.4601 18.7935 10.8332 18.3333 10.8332H15.6006L13.2905 17.7634C13.1771 18.1036 12.8587 18.3332 12.5 18.3332C12.1413 18.3332 11.8228 18.1036 11.7094 17.7634L7.49998 5.13507L5.79055 10.2634C5.67712 10.6036 5.35867 10.8332 4.99998 10.8332H1.66665C1.20641 10.8332 0.833313 10.4601 0.833313 9.99984C0.833313 9.5396 1.20641 9.1665 1.66665 9.1665H4.39935L6.70941 2.23631C6.82284 1.89603 7.14129 1.6665 7.49998 1.6665Z" fill="#101828"/>
</svg>
